<svg xmlns="http://www.w3.org/2000/svg" viewBox="0 0 404.91 397.91"><defs><style>.cls-1{fill:#fff3cd;}.cls-2{fill:#e2af29;}.cls-3{fill:#ffce28;}.cls-4{fill:#e2af2b;}.cls-5{fill:#fff;}</style></defs><title>electricity_icon</title><g id="Layer_1" data-name="Layer 1"><circle class="cls-1" cx="202.45" cy="202.45" r="195.45"/><path class="cls-2" d="M255.68,455.09A241.77,241.77,0,0,1,217.41,452c-3.17-.5-6.32-1.15-9.49-1.73s-6.28-1.41-9.43-2.12c-1.58-.33-3.13-.8-4.69-1.22l-4.68-1.28c-1.58-.39-3.09-1-4.64-1.44l-4.63-1.51a186.86,186.86,0,0,1-67.37-39.87q-3.54-3.48-6.94-7.12-3.23-3.78-6.4-7.61l-6.07-7.87c-1.91-2.71-3.87-5.38-5.73-8.12a202.52,202.52,0,1,1,336.67,0c-1.85,2.75-3.82,5.41-5.73,8.12-1,1.34-2,2.61-3,3.93l-3,3.93c-2.12,2.55-4.24,5.09-6.4,7.61s-4.61,4.77-7,7.09l-7.47,6.55c-2.59,2.06-5.18,4.11-7.8,6.12s-5.39,3.82-8.11,5.66-5.55,3.55-8.37,5.23a196.15,196.15,0,0,1-35.6,16.28A235.53,235.53,0,0,1,255.68,455.09Zm0,0a167.9,167.9,0,0,0,38-4.39c1.57-.29,3.09-.78,4.63-1.18l4.61-1.27c1.54-.38,3-1,4.55-1.45l4.52-1.53c1.52-.47,3-1.13,4.45-1.71l4.41-1.79c1.48-.56,2.9-1.29,4.34-1.94l4.3-2a204.51,204.51,0,0,0,59.45-44.94q3.06-3.48,6.25-6.82c2-2.33,4.13-4.58,6.13-6.92s3.87-4.8,5.73-7.27,3.61-5,5.33-7.56a188.52,188.52,0,1,0-313.4,0c1.72,2.56,3.56,5,5.33,7.56s3.83,4.84,5.74,7.26,4.12,4.59,6.14,6.92,4.25,4.46,6.29,6.78a206.81,206.81,0,0,0,59.43,44.91l4.3,2c1.44.65,2.86,1.38,4.34,1.94l4.41,1.79c1.48.58,2.93,1.25,4.44,1.72l4.51,1.53c1.51.49,3,1.08,4.55,1.46l4.6,1.27c1.54.41,3.06.9,4.63,1.19A166.84,166.84,0,0,0,255.68,455.09Z" transform="translate(-53.23 -57.18)"/></g><g id="Layer_2" data-name="Layer 2"><polygon class="cls-3" points="266.24 59 129.43 211.24 221.62 203.1 129.43 338.64 300.19 165.27 204.4 173.45 266.24 59"/><path class="cls-4" d="M319.47,116.18q-17.55,19.67-34.64,39.45T251.36,195c-5.49,6.52-10.88,13.07-16.41,19.23l-16.58,18.73q-16.62,18.75-33.49,37.48l-2.5-5,92.19-8.14,6.3-.56L277.32,262,185.13,397.51l-4.62-3.79L351.28,220.34l2.39,5.09-47.9,4.09-23.95,2c-8,.7-16,1.33-23.95,2.08l-5.5.51,2.57-5c4.86-9.4,10.31-18.44,15.63-27.64l16.26-27.74c5.47-9.35,11-18.84,16.41-28.44S314.14,126,319.47,116.18Zm0,0c-5,9.28-9.87,18.59-14.72,28s-9.68,19.05-14.52,28.78l-14.66,29.48c-5,9.87-9.84,19.9-15.29,29.58l-2.92-4.46c8-.62,16-1.35,24-2l23.95-2,47.9-4.09,8.09-.69-5.7,5.78L184.79,397.93l-4.62-3.79,92.19-135.55,2.74,4.68-92.19,8.14-7.59.67,5.09-5.66q17.35-19.31,34.92-38.64L233,208.44c5.87-6.54,11.87-12.66,17.79-18.83q17.77-18.48,34.95-36.76T319.47,116.18Z" transform="translate(-53.23 -57.18)"/></g><g id="Layer_3" data-name="Layer 3"><polygon class="cls-5" points="224.09 134.52 190.73 181.4 281.63 168.32 208.52 258.34 300.19 165.27 204.4 173.45 224.09 134.52"/></g></svg>