<svg xmlns="http://www.w3.org/2000/svg" viewBox="0 0 404.91 398.21"><defs><style>.cls-1{fill:#faa93d;stroke:#faa93d;}.cls-1,.cls-2{stroke-miterlimit:10;}.cls-2{fill:#dd8439;stroke:#fec985;}.cls-3{fill:#fff3a9;}.cls-4{fill:#b53832;}</style></defs><title>fire_icon</title><g id="Layer_2" data-name="Layer 2"><ellipse class="cls-1" cx="202.45" cy="202.35" rx="195.45" ry="195.35"/></g><g id="Layer_5" data-name="Layer 5"><path class="cls-2" d="M194.46,308.58l-10.07-47c-2.67-12.45-6.43-26.42-17.65-32.44A75.46,75.46,0,0,1,219,234.55c-7.44-10.16-5.5-20.54-5.19-32.56.11-4.13.22-8.34,1.56-12.25s3.9-7.44,6.41-10.82c15.8-21.26,33.1-38.3,56.43-51.09l23.62-12.95c-5.77,15.57-18.72,28.82-19.51,45.41-.55,11.48,4.94,22.29,10.28,32.47l17.66,33.66c4.28-14.46,16.1-25.21,27.41-35.19-5.4,14.84-10,30.28-9.83,46.07.44,36,25.69,71.38,14.78,105.71-4.63,14.57-15.28,26.42-26.56,36.74-9.39,8.58-19.76,16.64-32,20.18-9.35,2.71-19.3,2.62-29,1.54-16.64-1.85-32.89-1.15-48.57-8.41a60.14,60.14,0,0,1-22.08-17.89c-9.33-12.36-13.86-29-17-43.86a62.16,62.16,0,0,1-.07-26.9,49.54,49.54,0,0,1,4.79-12.55c.88-1.6,7.92-9.4,7.73-10.42A51,51,0,0,0,185,296.94C186.75,300.11,193.84,305.68,194.46,308.58Z" transform="translate(-53.23 -56.18)"/></g><g id="Layer_4" data-name="Layer 4"><path class="cls-3" d="M274,208.12c10,18.39,28.47,34.73,26.3,55.53a26.93,26.93,0,0,0,8.11-14.37c-2.58,21.9,11.45,41.95,16.94,63.3,7.1,27.59-1.19,58.62-21.09,79,20.09-9,33.3-29.69,37.21-51.34s-.43-44.05-7.91-64.73c-5-13.77-11.45-27.5-11.46-42.15,0-16.06,7.73-31,15.29-45.16a61.29,61.29,0,0,0-31.21,44.93c1.28-15.38-10.66-28.22-17.3-42.15-12.42-26.08-4.51-60.24,18.11-78.21-6.91,5.49-17.55,5.7-24.22,11.91-5.28,4.92-8.74,13.55-11.41,20.05C263.11,164.95,263.54,188.77,274,208.12Z" transform="translate(-53.23 -56.18)"/><path class="cls-3" d="M246.25,304.94a11,11,0,0,1-.57-3,17.69,17.69,0,0,1,.42-5.27,24.51,24.51,0,0,1,1.35-4,13.92,13.92,0,0,1,1.68-3.38,17.47,17.47,0,0,1,5.88-4.29,23,23,0,0,1,5.7-1.82,13,13,0,0,1,5.73.26,12.61,12.61,0,0,1,1.43.48c1,.39,1.77,1,2.69,1.46s1.84.7,2.72,1.15a15.93,15.93,0,0,1,4.63,3.54c2.76,3.11,3.71,7.15,5.12,10.92a41.57,41.57,0,0,1,2.36,14.44,49,49,0,0,1-.79,7.45c-.8,4.79-1.92,9.63-4.49,13.75a27.81,27.81,0,0,1-6.46,7c-12.14,9.58-27.46,9.08-41.8,6.11-8.58-1.78-16.51-4.37-22.52-11-5.36-5.91-10.15-12.48-13-19.94a44.72,44.72,0,0,1-2.17-7.76c4.89,7.93,10.31,15.84,18,21.33,8.63,6.19,19.46,9.67,30,8.35s20.59-7.83,25-17.49,2.39-22.23-5.64-29.18c-2.24-1.94-5.33-3.48-8.11-2.44a8.09,8.09,0,0,0-3.66,3.29,19,19,0,0,0-2.68,6.28,29,29,0,0,0-.46,4.27Z" transform="translate(-53.23 -56.18)"/></g><g id="Layer_3" data-name="Layer 3"><path class="cls-4" d="M248.71,310.13a17.8,17.8,0,0,1-3.3-8.94,18.81,18.81,0,0,1,1.69-9.54,17.39,17.39,0,0,1,6.62-7.28,19.59,19.59,0,0,1,9.56-2.86,18.26,18.26,0,0,1,9.82,2.55,25.21,25.21,0,0,1,7.43,6.87,34.92,34.92,0,0,1,4.66,8.88,44.37,44.37,0,0,1,1.47,4.8,46.32,46.32,0,0,1,.84,5,49.17,49.17,0,0,1,.32,5,50.33,50.33,0,0,1-.3,5,41.5,41.5,0,0,1-2.26,9.86,40.31,40.31,0,0,1-4.52,9.15,37.42,37.42,0,0,1-6.77,7.81,19.93,19.93,0,0,1-2,1.63c-.7.51-1.38,1.06-2.1,1.54a41.7,41.7,0,0,1-4.55,2.55c-.79.36-1.57.76-2.37,1.09l-2.45.88a20.48,20.48,0,0,1-2.49.74c-.84.21-1.67.46-2.52.63a55,55,0,0,1-20.42.1,62.29,62.29,0,0,1-9.82-2.57,70,70,0,0,1-9.26-4.1,55.14,55.14,0,0,1-16.19-12.61,57.17,57.17,0,0,1-10.12-17.8A109.27,109.27,0,0,1,185,299.25c-2.05-12.83-2.91-25.49-6.05-37.33a61.73,61.73,0,0,0-6.86-16.54,47.1,47.1,0,0,0-11.75-13l-7-5.33,8.63-1.77a81,81,0,0,1,24.18-1.16,79.55,79.55,0,0,1,23.5,5.91l.71.3.74.37,1.47.75a27.68,27.68,0,0,1,2.8,1.7,38.93,38.93,0,0,1,5,4,64.09,64.09,0,0,1,8,9.36c2.33,3.26,4.42,6.59,6.47,9.84a103.12,103.12,0,0,0,6.22,9.15l-7.1,2.56a16.67,16.67,0,0,0-.75-5.23,14.19,14.19,0,0,0-2.65-4.41c-.63-.75-1.31-1.51-2-2.27l-.35-.39-.39-.45-.65-.87c-.39-.56-.74-1.11-1.06-1.64-1.24-2.09-2.2-4-3.2-5.4a9.79,9.79,0,0,0-.7-.86l-.29-.28-.11-.08-.05,0-.16-.12a34.31,34.31,0,0,1-8-7.87,40.13,40.13,0,0,1-6.15-13.24,47.4,47.4,0,0,1-1.31-7.11,49.14,49.14,0,0,1-.17-7.2,55.76,55.76,0,0,1,2.61-14c2.86-9,7.46-17,12.54-24.47,10.2-14.81,22.33-28.4,36.7-39.47a127.6,127.6,0,0,1,23.17-14.3,104.89,104.89,0,0,1,26.05-8.48l19.88-3.62-17,10.92a55,55,0,0,0-20.22,24.29,62.39,62.39,0,0,0-4.94,31.56c.11,1.34.36,2.65.56,4s.51,2.63.87,3.91a49.3,49.3,0,0,0,2.56,7.56,48.65,48.65,0,0,0,3.69,7.07c1.42,2.3,3,4.57,4.69,6.85s3.39,4.59,5.09,7A83.39,83.39,0,0,1,307,217a43.12,43.12,0,0,1,3.82,8.62,32.88,32.88,0,0,1,1.47,9.71l-8,.12a50.63,50.63,0,0,1,2.58-17,76.2,76.2,0,0,1,6.81-15.29A60.48,60.48,0,0,1,324.1,189.8a34.92,34.92,0,0,1,7.21-5.31,20.88,20.88,0,0,1,9.44-2.59l9.81-.16-7,7c-5.56,5.58-9.28,13.07-11.53,21a96,96,0,0,0-3.28,24.95A132.45,132.45,0,0,0,331,260.11a111.28,111.28,0,0,0,3,12.34,118,118,0,0,0,4.48,11.93A126.37,126.37,0,0,1,343.34,297l1,3.32.79,3.37c.29,1.12.48,2.26.66,3.4s.4,2.28.54,3.42a82.61,82.61,0,0,1,.51,13.84,81.52,81.52,0,0,1-2,13.69c-4.18,18-14.41,34.23-28.07,46.37A90.63,90.63,0,0,1,267.51,407a104,104,0,0,1-53.07-9,95.4,95.4,0,0,1-11.86-6.51c-1.85-1.29-3.76-2.49-5.51-3.92-.88-.7-1.8-1.36-2.65-2.09l-2.55-2.22c-.87-.72-1.65-1.53-2.46-2.32s-1.63-1.55-2.38-2.39c-1.5-1.68-3-3.31-4.4-5.1a82.77,82.77,0,0,1-7.52-11.1c-1.06-2-2.15-3.91-3-6s-1.76-4.09-2.58-6.15A79.36,79.36,0,0,1,166,337.43a72.52,72.52,0,0,1-.17-26.3,71.73,71.73,0,0,0,1.68,26,80.49,80.49,0,0,0,10.21,23.72,79.4,79.4,0,0,0,7.77,10.26c1.38,1.64,2.94,3.12,4.44,4.63.75.76,1.59,1.43,2.38,2.15s1.58,1.43,2.44,2.07l2.52,2c.84.65,1.75,1.23,2.61,1.84,1.72,1.26,3.58,2.31,5.38,3.45a90,90,0,0,0,11.46,5.6l1.47.61,1.5.54,3,1.07,3.05.91,1.53.45,1.55.38a99.81,99.81,0,0,0,12.5,2.35,101.88,101.88,0,0,0,25.26-.19c2.07-.24,4.11-.63,6.16-1,1-.16,2-.46,3.05-.67s2-.44,3-.76a79.2,79.2,0,0,0,11.76-4.3,91.31,91.31,0,0,0,11-6.09c.88-.56,1.72-1.19,2.58-1.79s1.72-1.2,2.53-1.86l2.47-1.94,2.37-2.06c12.52-11.12,21.84-26,25.59-42.19a73.52,73.52,0,0,0,1.76-12.31,74.66,74.66,0,0,0-.45-12.41c-.12-1-.33-2-.49-3.07a30.35,30.35,0,0,0-.59-3.05l-.71-3-.9-3a118.87,118.87,0,0,0-4.56-11.93c-.85-2-1.71-4.09-2.52-6.21s-1.57-4.3-2.23-6.48a119.22,119.22,0,0,1-3.22-13.21,140.4,140.4,0,0,1-2.4-26.94,103.85,103.85,0,0,1,3.59-27.06,64.93,64.93,0,0,1,5.15-13A48.79,48.79,0,0,1,338,183.06l2.84,6.84a13,13,0,0,0-5.7,1.64,27.07,27.07,0,0,0-5.51,4.09,52.64,52.64,0,0,0-9,11.6,68.26,68.26,0,0,0-6.08,13.65,42.9,42.9,0,0,0-2.22,14.23l-8,.12a24.91,24.91,0,0,0-1.11-7.22,35.24,35.24,0,0,0-3.15-7.06,75.63,75.63,0,0,0-4.44-6.88c-1.61-2.28-3.32-4.56-5-6.91s-3.43-4.75-5-7.33a59.56,59.56,0,0,1-7.2-16.87c-.41-1.48-.68-3-1-4.48s-.5-3-.64-4.53a70.36,70.36,0,0,1,5.57-35.64,62.94,62.94,0,0,1,23.22-27.8l2.88,7.3c-16.64,3-32.25,10.81-45.77,21.24s-25.19,23.46-35,37.64c-4.84,7.08-9,14.52-11.52,22.38A47.87,47.87,0,0,0,213.86,211a41.15,41.15,0,0,0,.14,6,39.41,39.41,0,0,0,1.08,5.87,32.15,32.15,0,0,0,4.9,10.6,26.34,26.34,0,0,0,6.06,6l.44.33.54.42c.32.28.62.57.9.86a17.48,17.48,0,0,1,1.39,1.7c1.56,2.2,2.53,4.26,3.56,5.94.25.42.5.8.73,1.14l.34.45.35.39c.79.84,1.58,1.72,2.37,2.66a22.14,22.14,0,0,1,4,6.89A24.51,24.51,0,0,1,241.9,268l.15,11.67-7.26-9.11a109,109,0,0,1-6.78-9.93c-2.05-3.26-4.06-6.45-6.21-9.45-4.28-6-9.17-11.25-15.34-13.82a71.6,71.6,0,0,0-21.11-5.3,73,73,0,0,0-21.78,1l1.61-7.1a55.16,55.16,0,0,1,13.73,15.2,69.71,69.71,0,0,1,7.77,18.65c3.4,12.87,4.23,25.8,6.22,38.13a101.57,101.57,0,0,0,4.28,17.85,49.17,49.17,0,0,0,8.65,15.28,45.18,45.18,0,0,0,13.86,10.67,72.26,72.26,0,0,0,8.26,3.54,74.42,74.42,0,0,0,8.62,2.42,48.27,48.27,0,0,0,17.59.75c.72-.11,1.42-.29,2.14-.43a15.61,15.61,0,0,0,2.12-.52l2.08-.63c.68-.24,1.34-.55,2-.81a35.11,35.11,0,0,0,3.89-1.93c.62-.37,1.2-.81,1.81-1.2a15.24,15.24,0,0,0,1.76-1.28,31.41,31.41,0,0,0,6-6.31,34.75,34.75,0,0,0,4.3-7.75,42.07,42.07,0,0,0,1.47-4.23,43.15,43.15,0,0,0,.94-4.4c.29-1.48.37-3,.51-4.49a44.77,44.77,0,0,0,0-4.52,42.08,42.08,0,0,0-.51-4.5,40.43,40.43,0,0,0-1.09-4.4,31.34,31.34,0,0,0-3.76-8.21,22.15,22.15,0,0,0-6.17-6.37,15.72,15.72,0,0,0-8.32-2.64,17.57,17.57,0,0,0-8.7,2.05,15.94,15.94,0,0,0-6.46,6.3,17.94,17.94,0,0,0-2.15,9A17.51,17.51,0,0,0,248.71,310.13Z" transform="translate(-53.23 -56.18)"/></g><g id="Layer_1" data-name="Layer 1"><path class="cls-4" d="M255.68,454.09A241.77,241.77,0,0,1,217.41,451c-3.17-.5-6.32-1.15-9.49-1.73s-6.28-1.41-9.43-2.12c-1.58-.33-3.13-.8-4.69-1.22l-4.68-1.28c-1.58-.39-3.09-1-4.64-1.44l-4.63-1.51a186.86,186.86,0,0,1-67.37-39.87q-3.54-3.48-6.94-7.12-3.23-3.78-6.4-7.61l-6.07-7.87c-1.91-2.71-3.87-5.38-5.73-8.12a202.52,202.52,0,1,1,336.67,0c-1.85,2.75-3.82,5.41-5.73,8.12-1,1.34-2,2.61-3,3.93l-3,3.93c-2.12,2.55-4.24,5.09-6.4,7.61s-4.61,4.77-7,7.09l-7.47,6.55c-2.59,2.06-5.18,4.11-7.8,6.12s-5.39,3.82-8.11,5.66-5.55,3.55-8.37,5.23a196.15,196.15,0,0,1-35.6,16.28A235.53,235.53,0,0,1,255.68,454.09Zm0,0a167.9,167.9,0,0,0,38-4.39c1.57-.29,3.09-.78,4.63-1.18l4.61-1.27c1.54-.38,3-1,4.55-1.45l4.52-1.53c1.52-.47,3-1.13,4.45-1.71l4.41-1.79c1.48-.56,2.9-1.29,4.34-1.94l4.3-2a204.51,204.51,0,0,0,59.45-44.94q3.06-3.48,6.25-6.82c2-2.33,4.13-4.58,6.13-6.92s3.87-4.8,5.73-7.27,3.61-5,5.33-7.56a188.52,188.52,0,1,0-313.4,0c1.72,2.56,3.56,5,5.33,7.56s3.83,4.84,5.74,7.26,4.12,4.59,6.14,6.92,4.25,4.46,6.29,6.78a206.81,206.81,0,0,0,59.43,44.91l4.3,2c1.44.65,2.86,1.38,4.34,1.94l4.41,1.79c1.48.58,2.93,1.25,4.44,1.72l4.51,1.53c1.51.49,3,1.08,4.55,1.46l4.6,1.27c1.54.41,3.06.9,4.63,1.19A166.84,166.84,0,0,0,255.68,454.09Z" transform="translate(-53.23 -56.18)"/></g></svg>