<svg xmlns="http://www.w3.org/2000/svg" viewBox="0 0 404.91 397.91"><defs><style>.cls-1{fill:#d09474;}.cls-2{fill:#8a4921;}.cls-3{fill:#d3ab89;}.cls-4,.cls-5{fill:#a97c50;}.cls-4,.cls-6{stroke:#8b4a21;}.cls-4,.cls-5,.cls-6,.cls-7{stroke-miterlimit:10;}.cls-5,.cls-7{stroke:#8a4921;}.cls-6,.cls-7{fill:none;}.cls-6{stroke-width:0.5px;}</style></defs><title>earth_icon</title><g id="Layer_1" data-name="Layer 1"><circle class="cls-1" cx="202.45" cy="202.45" r="195.45"/><path class="cls-2" d="M255.68,455.09A241.77,241.77,0,0,1,217.41,452c-3.17-.5-6.32-1.15-9.49-1.73s-6.28-1.41-9.43-2.12c-1.58-.33-3.13-.8-4.69-1.22l-4.68-1.28c-1.58-.39-3.09-1-4.64-1.44l-4.63-1.51a186.86,186.86,0,0,1-67.37-39.87q-3.54-3.48-6.94-7.12-3.23-3.78-6.4-7.61l-6.07-7.87c-1.91-2.71-3.87-5.38-5.73-8.12a202.52,202.52,0,1,1,336.67,0c-1.85,2.75-3.82,5.41-5.73,8.12-1,1.34-2,2.61-3,3.93l-3,3.93c-2.12,2.55-4.24,5.09-6.4,7.61s-4.61,4.77-7,7.09l-7.47,6.55c-2.59,2.06-5.18,4.11-7.8,6.12s-5.39,3.82-8.11,5.66-5.55,3.55-8.37,5.23a196.15,196.15,0,0,1-35.6,16.28A235.53,235.53,0,0,1,255.68,455.09Zm0,0a167.9,167.9,0,0,0,38-4.39c1.57-.29,3.09-.78,4.63-1.18l4.61-1.27c1.54-.38,3-1,4.55-1.45l4.52-1.53c1.52-.47,3-1.13,4.45-1.71l4.41-1.79c1.48-.56,2.9-1.29,4.34-1.94l4.3-2a204.51,204.51,0,0,0,59.45-44.94q3.06-3.48,6.25-6.82c2-2.33,4.13-4.58,6.13-6.92s3.87-4.8,5.73-7.27,3.61-5,5.33-7.56a188.52,188.52,0,1,0-313.4,0c1.72,2.56,3.56,5,5.33,7.56s3.83,4.84,5.74,7.26,4.12,4.59,6.14,6.92,4.25,4.46,6.29,6.78a206.81,206.81,0,0,0,59.43,44.91l4.3,2c1.44.65,2.86,1.38,4.34,1.94l4.41,1.79c1.48.58,2.93,1.25,4.44,1.72l4.51,1.53c1.51.49,3,1.08,4.55,1.46l4.6,1.27c1.54.41,3.06.9,4.63,1.19A166.84,166.84,0,0,0,255.68,455.09Z" transform="translate(-53.23 -57.18)"/></g><g id="Layer_2" data-name="Layer 2"><path class="cls-3" d="M159.69,308.19a46.91,46.91,0,0,0,8.72,26.43,22.06,22.06,0,0,1,4.4-8.64l2.06,7.91a8.22,8.22,0,0,1,10-6.57c1.32.38,2.65,1.11,4,.79,2.55-.62,2.72-4.2,4.33-6.28,1.76-2.28,5.28-2.48,7.88-1.25s4.49,3.55,6.29,5.79l4.43-7.57a130.74,130.74,0,0,1,24,8.27,23.08,23.08,0,0,0,6.86-8,17.79,17.79,0,0,0,9.24,6.86c-.92-.29,6.48-11.78,7.94-12-1.91-2-2-5.89-1.19-9.32s2.39-7,2.77-10.6c.8-7.76-3.71-15-8.22-21.34-11.89-16.8-7.61-27.67-5.29-47a84.61,84.61,0,0,0-6.48-43.8C238.84,176,234.7,169.8,228.34,169c-7-.88-12.75,5.09-16.77,10.83-12.13,17.32-19.85,37.52-32.86,54.19-6.51,8.34-14.16,15.74-20.89,23.89s-6.9,15.35-9.56,25.5c-5,19-22,32.44-31.82,48.61,3.09-2,4.45-5.15,7.13-7.66,5.85-5.49,15.3-2.14,22.46,1.47l4-7.39a18.2,18.2,0,0,0,4.6,5.39A52.59,52.59,0,0,1,159.69,308.19Z" transform="translate(-53.23 -57.18)"/><path class="cls-3" d="M284.6,276.15c-2.83,7.51-6.48,15-12.56,20.23-3.39,2.92-7.46,5.05-10.54,8.3a20.78,20.78,0,0,0-2.89,23.9c-.64-4.34,5.29-7.95,8.85-5.38a34.09,34.09,0,0,0,2.72,2.27c2.27,1.3,5.12.28,7.52-.77l12.11-5.26c1.31-.57,2.83-1.13,4.09-.48,1.49.77,1.84,2.85,3.26,3.74,1.82,1.15,4.1-.22,6-1.26,5.14-2.86,11.22-3.34,17.09-3.75l12.52-.89c16-1.14,32.41-2.25,48,1.77,1.94.49-.1-7.23-1.53-7.86,7.9,4.65,2.55-11.29,1.81-14.71-2.24-10.37-4.37-20.76-6.55-31.13-.9-4.26-1.83-8.61-4.11-12.32-4.72-7.69-14-10.94-21.64-15.74-6.8-4.28-12.47-10-17.58-16.16-3.67-4.41-6.8-11.84-12.6-13.84-11.73-4.06-16.29,12-19.22,20.34C293.65,243.27,290.63,260.17,284.6,276.15Z" transform="translate(-53.23 -57.18)"/><path class="cls-4" d="M311.88,208.34c3,4,8.21,1.2,12,4.61,8.61,7.79,16.38,20.53,20.71,25.11,7.28,7.69,16.32,9.39,19.51,19.49,2.75,8.68,2.12,18.36,6.17,26.52,3.94,7.94,12.07,14,13.24,22.74,1.11-2-.62-4.31-1.26-6.51s2-5.31,3.34-3.45a30.08,30.08,0,0,1,4.19-11A25.4,25.4,0,0,0,405,290.53l-3.6-10a50.83,50.83,0,0,1,16.32,3.53c-5.91-9.28-15.38-15.6-24.58-21.64-16.57-10.88-58.41-46.54-75-57.42Z" transform="translate(-53.23 -57.18)"/><path class="cls-2" d="M295.53,250.31c.62-4,1.33-7.91,2-11.85s1.5-7.86,2.26-11.79l6.76-22.92.54-1.82,1.89,0a79.3,79.3,0,0,1,9.23.53,28.91,28.91,0,0,1,9.37,2.69,19.7,19.7,0,0,1,7.53,6.7c1.84,2.67,3.15,5.33,4.76,7.54,3.22,4.52,7.67,8.23,12.39,11.68s9.74,6.84,14.61,10.26l29.36,20.51,7.35,5.12c.62.41,1.26.81,1.85,1.26s1.15,1,1.73,1.44l3.43,2.91c4.58,3.87,9.09,7.83,13.58,11.84-5.3-2.83-10.58-5.71-15.79-8.67l-3.92-2.21c-.65-.37-1.31-.73-1.94-1.13s-1.22-.86-1.82-1.31L393.43,266l-29.36-20.51c-4.9-3.44-9.77-6.78-14.7-10.32s-9.78-7.58-13.52-12.81c-1.89-2.63-3.23-5.35-4.8-7.59a14.57,14.57,0,0,0-5.68-5.09,24,24,0,0,0-7.76-2.19A74.64,74.64,0,0,0,309,207l2.43-1.8-6.71,22.93c-1.48,3.72-3,7.43-4.47,11.14S297.16,246.63,295.53,250.31Z" transform="translate(-53.23 -57.18)"/><path class="cls-2" d="M115.92,330.44c3.79-8,9.62-15,14.55-22.09.64-.87,1.34-1.68,2-2.5s1.31-1.68,1.95-2.53a59.31,59.31,0,0,0,3.44-5.29c.54-.9,1-1.82,1.46-2.75s.88-1.88,1.27-2.84c.79-1.94,1.45-4,2.08-6,1.26-4.11,2.35-8.42,3.88-12.7a82.2,82.2,0,0,1,5.77-12.29,112.38,112.38,0,0,1,7.4-11.24c2.7-3.55,5.47-7,8.34-10.38,11.44-13.45,23.59-26,31.17-41.54,2-3.86,4-7.82,6.17-11.72,1.08-2,2.27-3.88,3.52-5.78a45.35,45.35,0,0,1,4.14-5.49c.85-.8,1.66-1.62,2.58-2.35l1.34-1.11,1.42-1a33.35,33.35,0,0,1,2.93-1.87,16.34,16.34,0,0,1,3.23-1.53,8.83,8.83,0,0,1,3.75-.49,7.46,7.46,0,0,1,3.44,1.32,19.8,19.8,0,0,1,4.48,5,19.18,19.18,0,0,0-5.17-3.81,5.77,5.77,0,0,0-2.81-.51,6.53,6.53,0,0,0-2.63.9,16,16,0,0,0-2.44,1.78,29.74,29.74,0,0,0-2.31,2.11l-1.09,1.11-1,1.19c-.69.77-1.28,1.64-1.91,2.47a65.19,65.19,0,0,0-7.1,10.47c-2.11,3.74-4,7.65-6.09,11.57-1,2-2.06,3.93-3.19,5.87s-2.35,3.83-3.53,5.74c-2.52,3.7-5.14,7.33-7.95,10.77-5.55,6.94-11.49,13.44-17.12,20.08-2.84,3.31-5.54,6.7-8.15,10.13a107.41,107.41,0,0,0-7.07,10.73,77.23,77.23,0,0,0-5.41,11.5c-1.43,4-2.5,8.19-3.8,12.47-.65,2.14-1.36,4.29-2.23,6.42-.44,1.06-.88,2.14-1.42,3.16s-1,2.07-1.62,3.06a78.89,78.89,0,0,1-7.88,11.06C128.07,318,121.47,323.55,115.92,330.44Z" transform="translate(-53.23 -57.18)"/><path class="cls-5" d="M241.55,249.51c-.65-8.33,1.31-16.64,1.38-25,.06-7.26-1.32-14.44-2.7-21.57l-3.51-18.22c-1-5.06,0-11.67-3.94-15C248.61,183,260.46,197.4,278,208.53c5,3.19,20,8.47,22.28,13.71,2.46,5.6-4.68,22.74-6.33,28.54a269,269,0,0,1-9.29,27.14c-2.93,7.27-6.48,14.78-12.94,19.22-4.2,2.88-8.61,4.62-11.27,9.2-7.65-3.4-6.33-17.3-8.64-24.25C248.25,271.27,242.45,261.09,241.55,249.51Z" transform="translate(-53.23 -57.18)"/><polyline class="cls-6" points="183.48 127.56 190.52 122.37 193.28 124.96 184.18 131.15 184.97 135.24 195.82 127.38 198.16 129.59 185.72 139.16 187 145.78 202.45 134.07 207.93 138.54 188.23 152.4 189.11 158.24 211.57 141.64 215.78 145.01 189.61 163.79 189.7 167.35 218.82 147.28 224.82 151.35 189.17 175.62 188.64 180.87 227.53 152.84 233.79 155.86 188.32 192.33 189.86 200.97 237.8 157.86 242.31 160.45 193.26 210.97 196.86 220.04 247.1 165.06 245.62 179.23 199.74 230.25 201.52 240.91 240.77 193.6 232.5 218.15 204.6 247.21"/><polyline class="cls-7" points="258.65 151.16 260.91 152.95 264.94 151.16 268.78 151.16 265.5 153.81 268.24 154.37 272.06 151.83 275.29 153.51 270.64 155.77 273.87 158.95 277.3 156.96 280.75 160.19 276.97 162.42 280.49 166.76 283.65 165.1 289.78 170.56 285.16 172.97 288.64 177.62 294.21 173.34 299.81 178.8 294.86 184.09 299.81 187.71 304.6 183.04 310.06 185.49 304.87 191.49 308.98 196.22 315.98 187.26 319.76 192.51 310.86 200.36 312.65 208.46 324.88 197.75 330.01 199.87 313.49 214.06 314.33 218.73 333.8 202.45 337.59 205.33 315.61 223.46 317.03 226.88 340.71 207.22 346.01 209.78 320.06 231.81 323.12 235.87 349.18 214.13 353.19 216.25 324.63 237.86"/></g></svg>