<?xml version="1.0" encoding="UTF-8" standalone="no"?>
<svg
   xmlns:dc="http://purl.org/dc/elements/1.1/"
   xmlns:cc="http://creativecommons.org/ns#"
   xmlns:rdf="http://www.w3.org/1999/02/22-rdf-syntax-ns#"
   xmlns:svg="http://www.w3.org/2000/svg"
   xmlns="http://www.w3.org/2000/svg"
   xmlns:sodipodi="http://sodipodi.sourceforge.net/DTD/sodipodi-0.dtd"
   xmlns:inkscape="http://www.inkscape.org/namespaces/inkscape"
   sodipodi:docname="water_icon.svg"
   inkscape:version="1.1-dev (53cefcb, 2020-02-05)"
   id="svg8"
   version="1.1"
   viewBox="0 0 200 200"
   height="200"
   width="200">
  <defs
     id="defs2" />
  <sodipodi:namedview
     inkscape:bbox-paths="true"
     inkscape:bbox-nodes="true"
     inkscape:snap-bbox-edge-midpoints="true"
     inkscape:snap-bbox-midpoints="true"
     inkscape:object-paths="true"
     inkscape:snap-intersection-paths="true"
     inkscape:snap-smooth-nodes="true"
     inkscape:snap-midpoints="true"
     inkscape:snap-to-guides="false"
     inkscape:snap-grids="true"
     inkscape:snap-global="true"
     inkscape:snap-bbox="true"
     inkscape:snap-perpendicular="true"
     inkscape:snap-tangential="true"
     guidetolerance="20"
     borderlayer="false"
     units="px"
     scale-x="0.46458"
     objecttolerance="10000"
     showborder="true"
     inkscape:showpageshadow="false"
     inkscape:pagecheckerboard="false"
     inkscape:window-maximized="1"
     inkscape:window-y="-11"
     inkscape:window-x="-11"
     inkscape:window-height="1920"
     inkscape:window-width="3000"
     showgrid="true"
     inkscape:current-layer="layer1"
     inkscape:document-units="px"
     inkscape:cy="102.36059"
     inkscape:cx="23.653263"
     inkscape:zoom="2.8284271"
     inkscape:pageshadow="2"
     inkscape:pageopacity="0.74509804"
     borderopacity="1.0"
     bordercolor="#666666"
     pagecolor="#ffffff"
     id="base">
    <inkscape:grid
       empspacing="5"
       snapvisiblegridlinesonly="false"
       originy="0"
       originx="0"
       dotted="false"
       enabled="true"
       id="grid18"
       type="xygrid" />
  </sodipodi:namedview>
  <metadata
     id="metadata5">
    <rdf:RDF>
      <cc:Work
         rdf:about="">
        <dc:format>image/svg+xml</dc:format>
        <dc:type
           rdf:resource="http://purl.org/dc/dcmitype/StillImage" />
        <dc:title></dc:title>
      </cc:Work>
    </rdf:RDF>
  </metadata>
  <g
     id="layer1"
     inkscape:groupmode="layer"
     inkscape:label="Layer 1">
    <path
       sodipodi:nodetypes="ccccc"
       inkscape:connector-curvature="0"
       d="m 199.99244,100.03546 c 0.008,54.96454 -44.99244,99.96454 -99.99244,99.96454 -55,0 -100,-45 -100,-100 0,-55 45,-100 100,-100 55,0 100,45 99.99244,100.03546 z"
       style="fill:#56c1d2;fill-opacity:1;fill-rule:evenodd;stroke-width:0.948413"
       id="path10" />
    <path
       sodipodi:nodetypes="ccccc"
       id="path10-2"
       style="fill:#befffe;fill-opacity:1;fill-rule:evenodd;stroke-width:0.853593"
       d="m 190,110 c 0,50 -40,90 -90,90 -50,0 -90,-40 -90,-90 0.05326,-50.095096 40,-90 90,-90 50,0 90,40 90,90 z"
       inkscape:connector-curvature="0" />
    <path
       sodipodi:nodetypes="ccccccc"
       inkscape:connector-curvature="0"
       id="path858"
       d="m 100,56 c -10,30 -30,38 -30,69 0,40 60,40 60,0 0,-14 -14,-27 -17,-30 8,16 8,20 8,30 0,32 -42,32 -42,0 0,-27 21,-48 21,-69 z"
       style="fill:#56c1d2;fill-opacity:1;stroke:none;stroke-width:1px;stroke-linecap:butt;stroke-linejoin:miter;stroke-opacity:1" />
  </g>
</svg>
