<svg xmlns="http://www.w3.org/2000/svg" viewBox="0 0 404.91 397.91"><g data-name="Layer 1"><circle cx="202.45" cy="202.45" r="195.45" fill="#fff3cd"/><path d="M202.45 397.91a241.77 241.77 0 0 1-38.27-3.09c-3.17-0.5-6.32-1.15-9.49-1.73s-6.28-1.41-9.43-2.12c-1.58-0.33-3.13-0.8-4.69-1.22l-4.68-1.28c-1.58-0.39-3.09-1-4.64-1.44l-4.63-1.51a186.86 186.86 0 0 1-67.37-39.87q-3.54-3.48-6.94-7.12-3.23-3.78-6.4-7.61l-6.07-7.87c-1.91-2.71-3.87-5.38-5.73-8.12a202.52 202.52 0 1 1 336.67 0c-1.85 2.75-3.82 5.41-5.73 8.12-1 1.34-2 2.61-3 3.93l-3 3.93c-2.12 2.55-4.24 5.09-6.4 7.61s-4.61 4.77-7 7.09l-7.47 6.55c-2.59 2.06-5.18 4.11-7.8 6.12s-5.39 3.82-8.11 5.66-5.55 3.55-8.37 5.23a196.15 196.15 0 0 1-35.6 16.28 235.53 235.53 0 0 1-75.85 12.46zm0 0a167.9 167.9 0 0 0 38-4.39c1.57-0.29 3.09-0.78 4.63-1.18l4.61-1.27c1.54-0.38 3-1 4.55-1.45l4.52-1.53c1.52-0.47 3-1.13 4.45-1.71l4.41-1.79c1.48-0.56 2.9-1.29 4.34-1.94l4.3-2a204.51 204.51 0 0 0 59.45-44.94q3.06-3.48 6.25-6.82c2-2.33 4.13-4.58 6.13-6.92s3.87-4.8 5.73-7.27 3.61-5 5.33-7.56a188.52 188.52 0 1 0-313.4 0c1.72 2.56 3.56 5 5.33 7.56s3.83 4.84 5.74 7.26 4.12 4.59 6.14 6.92 4.25 4.46 6.29 6.78a206.81 206.81 0 0 0 59.43 44.91l4.3 2c1.44 0.65 2.86 1.38 4.34 1.94l4.41 1.79c1.48 0.58 2.93 1.25 4.44 1.72l4.51 1.53c1.51 0.49 3 1.08 4.55 1.46l4.6 1.27c1.54 0.41 3.06 0.9 4.63 1.19a166.84 166.84 0 0 0 37.99 4.44z" fill="#e2af29"/></g><g data-name="Layer 2"><path fill="#ffce28" d="M266.24 59L129.43 211.24l92.19-8.14-92.19 135.54 170.76-173.37-95.79 8.18L266.24 59z"/><path d="M266.24 59q-17.55 19.67-34.64 39.45t-33.47 39.37c-5.49 6.52-10.88 13.07-16.41 19.23l-16.58 18.73q-16.62 18.75-33.49 37.48l-2.5-5 92.19-8.14 6.3-0.56-3.55 5.26-92.19 135.51-4.62-3.79 170.77-173.38 2.39 5.09-47.9 4.09-23.95 2c-8 0.7-16 1.33-23.95 2.08l-5.5 0.51 2.57-5c4.86-9.4 10.31-18.44 15.63-27.64l16.26-27.74c5.47-9.35 11-18.84 16.41-28.44s10.9-19.29 16.23-29.11zm0 0c-5 9.28-9.87 18.59-14.72 28s-9.68 19.05-14.52 28.78l-14.66 29.48c-5 9.87-9.84 19.9-15.29 29.58l-2.92-4.46c8-0.62 16-1.35 24-2l23.95-2 47.9-4.09 8.09-0.69-5.7 5.78-170.81 173.37-4.62-3.79 92.19-135.55 2.74 4.68-92.19 8.14-7.59 0.67 5.09-5.66q17.35-19.31 34.92-38.64l17.67-19.34c5.87-6.54 11.87-12.66 17.79-18.83q17.77-18.48 34.95-36.76T266.24 59z" fill="#e2af2b"/></g><path fill="#fff" d="M224.09 134.52l-33.36 46.88 90.9-13.08-73.11 90.02 91.67-93.07-95.79 8.18 19.69-38.93z" data-name="Layer 3"/></svg>