<svg xmlns="http://www.w3.org/2000/svg" viewBox="0 0 404.91 397.91"><defs><style>.cls-4{stroke-miterlimit:10;fill:#c7e6ea;stroke:#5b9dce}</style></defs><ellipse cx="203.02" cy="200.45" rx="193.24" ry="197.46" fill="#90c8e1" id="Layer_4" data-name="Layer 4"/><path d="M242.32 138.7a175.43 175.43 0 0 0 41.87 79.21 137.38 137.38 0 0 0 13.28 12A66.62 66.62 0 0 1 309.59 244a70 70 0 0 1 5.64 9.62c3.23 6.93 4.67 14.58 5.18 22.21 0.78 11.74 1.66 24.59-3 35.39-1.91 4.41-5.31 8.55-8.24 12.36-5.7 7.41-11.54 14.89-19.08 20.41s-17.14 8.92-26.3 7.09c-11.09-2.21-19.28-11.3-28.9-17.24A45.72 45.72 0 0 1 229 330a27.13 27.13 0 0 1-4.92-6 85.68 85.68 0 0 1-10-70.46c4.3-14.19 8.73-28.35 12.65-42.65 1.88-6.87 3.52-13.4 6.34-19.92q4.38-10.13 8.09-20.52c0.72-2 1.44-4.19 1-6.3s0.53-6.31 0.91-8.31c1.01-5.26-0.07-11.84-0.75-17.14z" transform="translate(-53.55 -56.18)" stroke-miterlimit="10" fill="#5a9dd0" stroke="#5b9dcf" id="Layer_3" data-name="Layer 3"/><path d="M256 454.09a241.77 241.77 0 0 1-38.27-3.09c-3.17-0.5-6.32-1.15-9.49-1.73s-6.28-1.41-9.43-2.12c-1.58-0.33-3.13-0.8-4.69-1.22l-4.68-1.28c-1.58-0.39-3.09-1-4.64-1.44l-4.63-1.51a186.86 186.86 0 0 1-67.37-39.87q-3.54-3.48-6.94-7.12-3.23-3.78-6.4-7.61l-6.07-7.87c-1.91-2.71-3.87-5.38-5.73-8.12a202.52 202.52 0 1 1 336.67 0c-1.85 2.75-3.82 5.41-5.73 8.12-1 1.34-2 2.61-3 3.93l-3 3.93c-2.12 2.55-4.24 5.09-6.4 7.61s-4.61 4.77-7 7.09l-7.47 6.55c-2.59 2.06-5.18 4.11-7.8 6.12s-5.39 3.82-8.11 5.66-5.55 3.55-8.37 5.23a196.15 196.15 0 0 1-35.6 16.28A235.54 235.54 0 0 1 256 454.09zm0 0a167.9 167.9 0 0 0 38-4.39c1.57-0.29 3.09-0.78 4.63-1.18l4.61-1.27c1.54-0.38 3-1 4.55-1.45l4.52-1.53c1.52-0.47 3-1.13 4.45-1.71l4.41-1.79c1.48-0.56 2.9-1.29 4.34-1.94l4.3-2a204.51 204.51 0 0 0 59.45-44.94q3.06-3.48 6.25-6.82c2-2.33 4.13-4.58 6.13-6.92s3.87-4.8 5.73-7.27 3.61-5 5.33-7.56a188.52 188.52 0 1 0-313.4 0c1.72 2.56 3.56 5 5.33 7.56s3.83 4.84 5.74 7.26 4.12 4.59 6.14 6.92 4.25 4.46 6.29 6.78a206.81 206.81 0 0 0 59.43 44.91l4.3 2c1.44 0.65 2.86 1.38 4.34 1.94l4.41 1.79c1.48 0.58 2.93 1.25 4.44 1.72l4.51 1.53c1.51 0.49 3 1.08 4.55 1.46l4.6 1.27c1.54 0.41 3.06 0.9 4.63 1.19a166.84 166.84 0 0 0 37.99 4.44z" transform="translate(-53.55 -56.18)" fill="#5b9dcf" id="Layer_1" data-name="Layer 1"/><g id="Layer_2" data-name="Layer 2"><path class="cls-4" d="M317.44 270.19c-1.57-17.44-9.16-33.33-25.05-44.42 52.75 36.82 39.33 138.56-34.34 136.55a73.34 73.34 0 0 1-24.17-4.32c-20.42-7.79-34.71-27.75-39.27-49.13s-0.41-43.88 7.81-64.13c14.42-35.51 41.61-68.21 39.75-106.49 6.14 19.48 2.46 45.16-4.51 64.36s-16.52 37.55-21.15 57.44-3.61 42.46 9 58.56c12.86 16.47 33.09 24.07 53.74 17.55 23.69-7.49 33-18.87 37.17-43.25a88.29 88.29 0 0 0 1.02-22.72z" transform="translate(-53.55 -56.18)"/><path class="cls-4" d="M273 244.82a107.63 107.63 0 0 0 20.53 31c1.58 1.67 3.63 3.43 5.89 3 0.82-10.83-3.23-21.64-9.56-30.47-5.2-7.27-15-19.77-24.37-20.68-0.05 4.84 5 11.24 7.07 16.11z" transform="translate(-53.55 -56.18)"/></g></svg>